{
  "source": "C:\\Users\\Peter\\Desktop\\stuff\\MIUN\\quantitative_research\\video_compression\\videos\\BVI-HD\\BVI-HD_CDVL_videos\\ORIG\\Hamster_1920x1080_60fps.mp4",
  "output": "C:\\Users\\Peter\\Desktop\\stuff\\MIUN\\quantitative_research\\video_compression\\compressed_videos\\BVI-HD\\av1\\1.5\\Hamster_1920x1080_60fps_av1.mkv",
  "codec": "av1",
  "ok": "Input #0, mov,mp4,m4a,3gp,3g2,mj2, from 'C:\\Users\\Peter\\Desktop\\stuff\\MIUN\\quantitative_research\\video_compression\\videos\\BVI-HD\\BVI-HD_CDVL_videos\\ORIG\\Hamster_1920x1080_60fps.mp4':\n  Metadata:\n    major_brand     : isom\n    minor_version   : 512\n    compatible_brands: isomiso2avc1mp41\n    encoder         : Lavf54.28.101\n  Duration: 00:00:05.00, start: 0.000000, bitrate: 208485 kb/s\n  Stream #0:0[0x1](und): Video: h264 (High 4:4:4 Predictive) (avc1 / 0x31637661), yuv420p(progressive), 1920x1080, 208481 kb/s, 60 fps, 60 tbr, 60 tbn (default)\n    Metadata:\n      handler_name    : VideoHandler\n      vendor_id       : [0][0][0][0]\n[out#0/matroska @ 000002eb4e519100] Codec AVOption b:a (set bitrate (in bits/s)) has not been used for any stream. The most likely reason is either wrong type (e.g. a video option with no video streams) or that it is a private option of some decoder which was not actually used for any stream.\nStream mapping:\n  Stream #0:0 -> #0:0 (h264 (native) -> av1 (libsvtav1))\nPress [q] to stop, [?] for help\nSvt[info]: -------------------------------------------\nSvt[info]: SVT [version]:\tSVT-AV1 Encoder Lib v3.1.0-19-g6ecfe8ec\nSvt[info]: SVT [build]  :\tGCC 15.2.0\t 64 bit\nSvt[info]: LIB Build date: Aug 17 2025 11:37:13\nSvt[info]: -------------------------------------------\nSvt[info]: Level of Parallelism: 5\nSvt[info]: Number of PPCS 93\nSvt[info]: [asm level on system : up to avx2]\nSvt[info]: [asm level selected : up to avx2]\nSvt[info]: -------------------------------------------\nSvt[info]: SVT [config]: main profile\ttier (auto)\tlevel (auto)\nSvt[info]: SVT [config]: width / height / fps numerator / fps denominator \t\t: 1920 / 1080 / 60 / 1\nSvt[info]: SVT [config]: bit-depth / color format \t\t\t\t\t: 8 / YUV420\nSvt[info]: SVT [config]: preset / tune / pred struct \t\t\t\t\t: 4 / PSNR / random access\nSvt[info]: SVT [config]: gop size / mini-gop size / key-frame type \t\t\t: 321 / 16 / key frame\nSvt[info]: SVT [config]: BRC mode / target bitrate (kbps)\t\t\t\t: VBR / 1500 \nSvt[info]: SVT [config]: AQ mode / Variance Boost \t\t\t\t\t: 2 / 0\nSvt[info]: SVT [config]: sharpness / luminance-based QP bias \t\t\t\t: 0 / 0\nSvt[info]: SVT [config]: QP scale compress strength \t\t\t\t\t: 0\nSvt[info]: -------------------------------------------\nOutput #0, matroska, to 'C:\\Users\\Peter\\Desktop\\stuff\\MIUN\\quantitative_research\\video_compression\\compressed_videos\\BVI-HD\\av1\\1.5\\Hamster_1920x1080_60fps_av1.mkv':\n  Metadata:\n    major_brand     : isom\n    minor_version   : 512\n    compatible_brands: isomiso2avc1mp41\n    encoder         : Lavf62.3.100\n  Stream #0:0(und): Video: av1 (AV01 / 0x31305641), yuv420p(tv, progressive), 1920x1080, q=2-31, 1500 kb/s, 60 fps, 1k tbn (default)\n    Metadata:\n      encoder         : Lavc62.11.100 libsvtav1\n      handler_name    : VideoHandler\n      vendor_id       : [0][0][0][0]\n    Side data:\n      cpb: bitrate max/min/avg: 0/0/1500000 buffer size: 1500000 vbv_delay: N/A\nframe=    0 fps=0.0 q=0.0 size=       0KiB time=N/A bitrate=N/A speed=N/A elapsed=0:00:01.03    \nframe=    0 fps=0.0 q=0.0 size=       0KiB time=N/A bitrate=N/A speed=N/A elapsed=0:00:01.58    \nframe=    0 fps=0.0 q=0.0 size=       0KiB time=N/A bitrate=N/A speed=N/A elapsed=0:00:02.11    \nframe=    0 fps=0.0 q=0.0 size=       0KiB time=N/A bitrate=N/A speed=N/A elapsed=0:00:02.63    \nframe=    0 fps=0.0 q=0.0 size=       0KiB time=N/A bitrate=N/A speed=N/A elapsed=0:00:03.15    \nframe=    1 fps=0.3 q=15.0 size=       1KiB time=00:00:00.00 bitrate=N/A speed=   0x elapsed=0:00:03.66    \nframe=    1 fps=0.2 q=15.0 size=       1KiB time=00:00:00.00 bitrate=N/A speed=   0x elapsed=0:00:04.18    \nframe=    4 fps=0.9 q=46.0 size=       1KiB time=00:00:00.05 bitrate= 113.9kbits/s speed=0.0107x elapsed=0:00:04.69    \nframe=    8 fps=1.5 q=46.0 size=       1KiB time=00:00:00.11 bitrate=  48.8kbits/s speed=0.0224x elapsed=0:00:05.21    \nframe=    9 fps=1.6 q=39.0 size=       1KiB time=00:00:00.13 bitrate=  42.7kbits/s speed=0.0232x elapsed=0:00:05.73    \nframe=   15 fps=2.4 q=41.0 size=       1KiB time=00:00:00.23 bitrate=  24.4kbits/s speed=0.0373x elapsed=0:00:06.25    \nframe=   19 fps=2.8 q=43.0 size=       1KiB time=00:00:00.30 bitrate=  19.0kbits/s speed=0.0442x elapsed=0:00:06.78    \nframe=   23 fps=3.1 q=43.0 size=       1KiB time=00:00:00.36 bitrate=  15.5kbits/s speed=0.0502x elapsed=0:00:07.31    \nframe=   27 fps=3.4 q=43.0 size=       1KiB time=00:00:00.43 bitrate=  13.1kbits/s speed=0.055x elapsed=0:00:07.87    \nframe=   32 fps=3.8 q=44.0 size=       1KiB time=00:00:00.51 bitrate=  11.0kbits/s speed=0.0612x elapsed=0:00:08.44    \nframe=   35 fps=3.9 q=44.0 size=       1KiB time=00:00:00.55 bitrate=  10.4kbits/s speed=0.0612x elapsed=0:00:08.98    \nframe=   37 fps=3.9 q=42.0 size=       1KiB time=00:00:00.60 bitrate=   9.5kbits/s speed=0.0626x elapsed=0:00:09.58    \nframe=   39 fps=3.9 q=42.0 size=       1KiB time=00:00:00.63 bitrate=   9.0kbits/s speed=0.0626x elapsed=0:00:10.11    \nframe=   41 fps=3.8 q=39.0 size=       1KiB time=00:00:00.66 bitrate=   8.5kbits/s speed=0.0624x elapsed=0:00:10.67    \nframe=   44 fps=3.9 q=43.0 size=       1KiB time=00:00:00.71 bitrate=   7.9kbits/s speed=0.0635x elapsed=0:00:11.28    \nframe=   48 fps=4.0 q=43.0 size=       1KiB time=00:00:00.78 bitrate=   7.3kbits/s speed=0.066x elapsed=0:00:11.87    \nframe=   51 fps=4.1 q=45.0 size=       1KiB time=00:00:00.83 bitrate=   6.8kbits/s speed=0.0671x elapsed=0:00:12.42    \nframe=   54 fps=4.2 q=45.0 size=       1KiB time=00:00:00.88 bitrate=   6.4kbits/s speed=0.0681x elapsed=0:00:12.97    \nframe=   58 fps=4.3 q=45.0 size=       1KiB time=00:00:00.95 bitrate=   6.0kbits/s speed=0.0704x elapsed=0:00:13.49    \nframe=   63 fps=4.5 q=45.0 size=       1KiB time=00:00:01.03 bitrate=   5.5kbits/s speed=0.0737x elapsed=0:00:14.02    \nframe=   67 fps=4.6 q=45.0 size=       1KiB time=00:00:01.10 bitrate=   5.2kbits/s speed=0.0755x elapsed=0:00:14.56    \nframe=   71 fps=4.7 q=43.0 size=       1KiB time=00:00:01.16 bitrate=   4.9kbits/s speed=0.0773x elapsed=0:00:15.10    \nframe=   75 fps=4.8 q=45.0 size=       1KiB time=00:00:01.23 bitrate=   4.6kbits/s speed=0.0789x elapsed=0:00:15.62    \nframe=   80 fps=5.0 q=48.0 size=       1KiB time=00:00:01.31 bitrate=   4.3kbits/s speed=0.0816x elapsed=0:00:16.12    \nframe=   83 fps=5.0 q=44.0 size=       1KiB time=00:00:01.36 bitrate=   4.2kbits/s speed=0.0821x elapsed=0:00:16.64    \nframe=   86 fps=5.0 q=48.0 size=       1KiB time=00:00:01.41 bitrate=   4.0kbits/s speed=0.0825x elapsed=0:00:17.17    \nframe=   90 fps=5.1 q=48.0 size=       1KiB time=00:00:01.48 bitrate=   3.8kbits/s speed=0.0838x elapsed=0:00:17.69    \nframe=   95 fps=5.2 q=43.0 size=       1KiB time=00:00:01.56 bitrate=   3.6kbits/s speed=0.086x elapsed=0:00:18.21    \nframe=   99 fps=5.3 q=44.0 size=       1KiB time=00:00:01.63 bitrate=   3.5kbits/s speed=0.0872x elapsed=0:00:18.73    \nframe=  102 fps=5.3 q=48.0 size=       1KiB time=00:00:01.68 bitrate=   3.4kbits/s speed=0.0874x elapsed=0:00:19.25    \nframe=  105 fps=5.3 q=40.0 size=       1KiB time=00:00:01.73 bitrate=   3.3kbits/s speed=0.0877x elapsed=0:00:19.76    \nframe=  109 fps=5.4 q=41.0 size=       1KiB time=00:00:01.80 bitrate=   3.2kbits/s speed=0.0887x elapsed=0:00:20.28    \nframe=  114 fps=5.5 q=47.0 size=       1KiB time=00:00:01.88 bitrate=   3.0kbits/s speed=0.0905x elapsed=0:00:20.81    \nframe=  118 fps=5.5 q=47.0 size=       1KiB time=00:00:01.95 bitrate=   2.9kbits/s speed=0.0914x elapsed=0:00:21.32    \nframe=  120 fps=5.5 q=47.0 size=       1KiB time=00:00:01.98 bitrate=   2.9kbits/s speed=0.0908x elapsed=0:00:21.85    \nframe=  124 fps=5.5 q=46.0 size=       1KiB time=00:00:02.05 bitrate=   2.8kbits/s speed=0.0915x elapsed=0:00:22.40    \nframe=  130 fps=5.7 q=47.0 size=       1KiB time=00:00:02.15 bitrate=   2.6kbits/s speed=0.0937x elapsed=0:00:22.93    \nframe=  134 fps=5.7 q=47.0 size=       1KiB time=00:00:02.21 bitrate=   2.6kbits/s speed=0.0946x elapsed=0:00:23.44    \nframe=  138 fps=5.8 q=47.0 size=       1KiB time=00:00:02.28 bitrate=   2.5kbits/s speed=0.0953x elapsed=0:00:23.96    \nframe=  144 fps=5.9 q=46.0 size=       1KiB time=00:00:02.38 bitrate=   2.4kbits/s speed=0.0973x elapsed=0:00:24.50    \nframe=  148 fps=5.9 q=47.0 size=       1KiB time=00:00:02.45 bitrate=   2.3kbits/s speed=0.098x elapsed=0:00:25.00    \nframe=  151 fps=5.9 q=43.0 size=       1KiB time=00:00:02.50 bitrate=   2.3kbits/s speed=0.0979x elapsed=0:00:25.52    \nframe=  156 fps=6.0 q=47.0 size=       1KiB time=00:00:02.58 bitrate=   2.2kbits/s speed=0.0991x elapsed=0:00:26.06    \nframe=  163 fps=6.1 q=49.0 size=       1KiB time=00:00:02.70 bitrate=   2.1kbits/s speed=0.102x elapsed=0:00:26.58    \nframe=  166 fps=6.1 q=50.0 size=       1KiB time=00:00:02.75 bitrate=   2.1kbits/s speed=0.101x elapsed=0:00:27.10    \nframe=  171 fps=6.2 q=48.0 size=       1KiB time=00:00:02.83 bitrate=   2.0kbits/s speed=0.103x elapsed=0:00:27.61    \nframe=  177 fps=6.3 q=32.0 size=       1KiB time=00:00:02.93 bitrate=   1.9kbits/s speed=0.104x elapsed=0:00:28.13    \nframe=  182 fps=6.4 q=52.0 size=       1KiB time=00:00:03.01 bitrate=   1.9kbits/s speed=0.105x elapsed=0:00:28.65    \nframe=  185 fps=6.3 q=44.0 size=       1KiB time=00:00:03.05 bitrate=   1.9kbits/s speed=0.105x elapsed=0:00:29.16    \nframe=  192 fps=6.5 q=54.0 size=       1KiB time=00:00:03.18 bitrate=   1.8kbits/s speed=0.107x elapsed=0:00:29.70    \nframe=  197 fps=6.5 q=50.0 size=       1KiB time=00:00:03.26 bitrate=   1.7kbits/s speed=0.108x elapsed=0:00:30.22    \nframe=  199 fps=6.5 q=52.0 size=       1KiB time=00:00:03.30 bitrate=   1.7kbits/s speed=0.107x elapsed=0:00:30.74    \nframe=  205 fps=6.6 q=48.0 size=       1KiB time=00:00:03.40 bitrate=   1.7kbits/s speed=0.109x elapsed=0:00:31.26    \nframe=  209 fps=6.6 q=36.0 size=       1KiB time=00:00:03.46 bitrate=   1.6kbits/s speed=0.109x elapsed=0:00:31.77    \nframe=  217 fps=6.7 q=47.0 size=       1KiB time=00:00:03.60 bitrate=   1.6kbits/s speed=0.111x elapsed=0:00:32.29    \nframe=  219 fps=6.7 q=49.0 size=       1KiB time=00:00:03.63 bitrate=   1.6kbits/s speed=0.111x elapsed=0:00:32.82    \nframe=  225 fps=6.7 q=39.0 size=       1KiB time=00:00:03.73 bitrate=   1.5kbits/s speed=0.112x elapsed=0:00:33.35    \nframe=  229 fps=6.8 q=48.0 size=       1KiB time=00:00:03.80 bitrate=   1.5kbits/s speed=0.112x elapsed=0:00:33.87    \nframe=  233 fps=6.8 q=45.0 size=       1KiB time=00:00:03.86 bitrate=   1.5kbits/s speed=0.112x elapsed=0:00:34.40    \nframe=  237 fps=6.8 q=44.0 size=       1KiB time=00:00:03.93 bitrate=   1.4kbits/s speed=0.113x elapsed=0:00:34.91    \nframe=  243 fps=6.9 q=49.0 size=       1KiB time=00:00:04.03 bitrate=   1.4kbits/s speed=0.114x elapsed=0:00:35.42    \nframe=  249 fps=6.9 q=43.0 size=       1KiB time=00:00:04.13 bitrate=   1.4kbits/s speed=0.115x elapsed=0:00:35.94    \nframe=  251 fps=6.9 q=47.0 size=       1KiB time=00:00:04.16 bitrate=   1.4kbits/s speed=0.114x elapsed=0:00:36.46    \nframe=  255 fps=6.9 q=47.0 size=       1KiB time=00:00:04.23 bitrate=   1.3kbits/s speed=0.114x elapsed=0:00:36.99    \nframe=  261 fps=7.0 q=44.0 size=       1KiB time=00:00:04.33 bitrate=   1.3kbits/s speed=0.116x elapsed=0:00:37.50    \nframe=  265 fps=7.0 q=43.0 size=       1KiB time=00:00:04.40 bitrate=   1.3kbits/s speed=0.116x elapsed=0:00:38.02    \nframe=  269 fps=7.0 q=46.0 size=       1KiB time=00:00:04.46 bitrate=   1.3kbits/s speed=0.116x elapsed=0:00:38.55    \nframe=  277 fps=7.1 q=50.0 size=       1KiB time=00:00:04.60 bitrate=   1.2kbits/s speed=0.118x elapsed=0:00:39.06    \nframe=  281 fps=7.1 q=46.0 size=       1KiB time=00:00:04.66 bitrate=   1.2kbits/s speed=0.118x elapsed=0:00:39.58    \nframe=  293 fps=7.3 q=46.0 size=       1KiB time=00:00:04.86 bitrate=   1.2kbits/s speed=0.121x elapsed=0:00:40.11    \n[out#0/matroska @ 000002eb4e519100] video:1027KiB audio:0KiB subtitle:0KiB other streams:0KiB global headers:0KiB muxing overhead: 0.201944%\nframe=  300 fps=7.5 q=50.0 Lsize=    1029KiB time=00:00:04.98 bitrate=1691.9kbits/s speed=0.124x elapsed=0:00:40.24    \n",
  "seconds": 40.63059902191162,
  "probe_out": {}
}